<svg width="108" height="32" viewBox="0 0 108 32" fill="none" xmlns="http://www.w3.org/2000/svg">
<path d="M34.292 8.594V25H36.554V8.594H42.144V6.54H28.78V8.594H34.292ZM44.3461 12.338V25H46.4521V18.89C46.4521 16.342 47.8821 14.496 50.3001 14.496C50.5081 14.496 50.8201 14.522 51.1321 14.548V12.208C50.9501 12.182 50.7941 12.182 50.6121 12.182C48.8701 12.182 47.4141 13.118 46.5041 14.652H46.4521V12.338H44.3461ZM59.5012 25.156C61.5552 25.156 63.1152 24.22 64.0252 22.712H64.0512V25H66.0792V12.338H63.9732V14.574L63.9212 14.6C63.0112 13.066 61.3732 12.182 59.5012 12.182C55.9132 12.182 53.3392 15.016 53.3392 18.76C53.3392 22.608 56.0172 25.156 59.5012 25.156ZM59.8132 23.232C57.2132 23.232 55.4712 21.308 55.4712 18.76C55.4712 15.952 57.4212 14.106 59.8132 14.106C62.3092 14.106 64.0512 16.16 64.0512 18.76C64.0512 21.438 62.1532 23.232 59.8132 23.232ZM72.1246 10.024C72.9826 10.024 73.6586 9.348 73.6586 8.516C73.6586 7.684 72.9826 7.008 72.1246 7.008C71.2666 7.008 70.5906 7.684 70.5906 8.516C70.5906 9.348 71.2666 10.024 72.1246 10.024ZM71.0586 12.338V25H73.1646V12.338H71.0586ZM78.3157 12.338V25H80.4217V18.682C80.4217 15.822 81.9817 14.106 84.3737 14.106C86.2197 14.106 87.4937 15.12 87.4937 18.084V25H89.5997V17.486C89.5997 13.872 87.7797 12.182 85.0497 12.182C83.0997 12.182 81.4357 13.092 80.4477 14.626H80.4217V12.338H78.3157ZM94.3362 12.338V25H96.4422V18.682C96.4422 15.822 98.0022 14.106 100.394 14.106C102.24 14.106 103.514 15.12 103.514 18.084V25H105.62V17.486C105.62 13.872 103.8 12.182 101.07 12.182C99.1202 12.182 97.4562 13.092 96.4682 14.626H96.4422V12.338H94.3362Z" fill="white"/>
<path d="M34.292 8.594H35.092V7.794H34.292V8.594ZM34.292 25H33.492V25.8H34.292V25ZM36.554 25V25.8H37.354V25H36.554ZM36.554 8.594V7.794H35.754V8.594H36.554ZM42.144 8.594V9.394H42.944V8.594H42.144ZM42.144 6.54H42.944V5.74H42.144V6.54ZM28.78 6.54V5.74H27.98V6.54H28.78ZM28.78 8.594H27.98V9.394H28.78V8.594ZM33.492 8.594V25H35.092V8.594H33.492ZM34.292 25.8H36.554V24.2H34.292V25.8ZM37.354 25V8.594H35.754V25H37.354ZM36.554 9.394H42.144V7.794H36.554V9.394ZM42.944 8.594V6.54H41.344V8.594H42.944ZM42.144 5.74H28.78V7.34H42.144V5.74ZM27.98 6.54V8.594H29.58V6.54H27.98ZM28.78 9.394H34.292V7.794H28.78V9.394ZM44.3461 12.338V11.538H43.5461V12.338H44.3461ZM44.3461 25H43.5461V25.8H44.3461V25ZM46.4521 25V25.8H47.2521V25H46.4521ZM51.1321 14.548L51.0656 15.3452L51.9321 15.4174V14.548H51.1321ZM51.1321 12.208H51.9321V11.5142L51.2452 11.416L51.1321 12.208ZM46.5041 14.652V15.452H46.9597L47.1921 15.0602L46.5041 14.652ZM46.4521 14.652H45.6521V15.452H46.4521V14.652ZM46.4521 12.338H47.2521V11.538H46.4521V12.338ZM43.5461 12.338V25H45.1461V12.338H43.5461ZM44.3461 25.8H46.4521V24.2H44.3461V25.8ZM47.2521 25V18.89H45.6521V25H47.2521ZM47.2521 18.89C47.2521 17.7594 47.5691 16.8583 48.0801 16.2541C48.5786 15.6648 49.3118 15.296 50.3001 15.296V13.696C48.8704 13.696 47.6795 14.2502 46.8585 15.2209C46.05 16.1767 45.6521 17.4725 45.6521 18.89H47.2521ZM50.3001 15.296C50.4666 15.296 50.7386 15.318 51.0656 15.3452L51.1985 13.7508C50.9016 13.726 50.5495 13.696 50.3001 13.696V15.296ZM51.9321 14.548V12.208H50.3321V14.548H51.9321ZM51.2452 11.416C50.9992 11.3809 50.7892 11.382 50.6121 11.382V12.982C50.7989 12.982 50.901 12.9831 51.0189 13L51.2452 11.416ZM50.6121 11.382C48.5499 11.382 46.8498 12.5012 45.816 14.2438L47.1921 15.0602C47.9784 13.7348 49.1902 12.982 50.6121 12.982V11.382ZM46.5041 13.852H46.4521V15.452H46.5041V13.852ZM47.2521 14.652V12.338H45.6521V14.652H47.2521ZM46.4521 11.538H44.3461V13.138H46.4521V11.538ZM64.0252 22.712V21.912H63.5736L63.3403 22.2987L64.0252 22.712ZM64.0512 22.712H64.8512V21.912H64.0512V22.712ZM64.0512 25H63.2512V25.8H64.0512V25ZM66.0792 25V25.8H66.8792V25H66.0792ZM66.0792 12.338H66.8792V11.538H66.0792V12.338ZM63.9732 12.338V11.538H63.1732V12.338H63.9732ZM63.9732 14.574L64.331 15.2895L64.7732 15.0684V14.574H63.9732ZM63.9212 14.6L63.2332 15.0082L63.6131 15.6485L64.279 15.3155L63.9212 14.6ZM59.5012 25.956C61.8271 25.956 63.6511 24.8804 64.7102 23.1253L63.3403 22.2987C62.5794 23.5596 61.2834 24.356 59.5012 24.356V25.956ZM64.0252 23.512H64.0512V21.912H64.0252V23.512ZM63.2512 22.712V25H64.8512V22.712H63.2512ZM64.0512 25.8H66.0792V24.2H64.0512V25.8ZM66.8792 25V12.338H65.2792V25H66.8792ZM66.0792 11.538H63.9732V13.138H66.0792V11.538ZM63.1732 12.338V14.574H64.7732V12.338H63.1732ZM63.6155 13.8585L63.5635 13.8845L64.279 15.3155L64.331 15.2895L63.6155 13.8585ZM64.6093 14.1918C63.5437 12.3956 61.6324 11.382 59.5012 11.382V12.982C61.1141 12.982 62.4788 13.7364 63.2332 15.0082L64.6093 14.1918ZM59.5012 11.382C55.4163 11.382 52.5392 14.6314 52.5392 18.76H54.1392C54.1392 15.4006 56.4102 12.982 59.5012 12.982V11.382ZM52.5392 18.76C52.5392 23.041 55.5666 25.956 59.5012 25.956V24.356C56.4679 24.356 54.1392 22.175 54.1392 18.76H52.5392ZM59.8132 22.432C57.6923 22.432 56.2712 20.9043 56.2712 18.76H54.6712C54.6712 21.7117 56.7342 24.032 59.8132 24.032V22.432ZM56.2712 18.76C56.2712 16.3691 57.8874 14.906 59.8132 14.906V13.306C56.9551 13.306 54.6712 15.5349 54.6712 18.76H56.2712ZM59.8132 14.906C61.7835 14.906 63.2512 16.5129 63.2512 18.76H64.8512C64.8512 15.8071 62.835 13.306 59.8132 13.306V14.906ZM63.2512 18.76C63.2512 21.0121 61.6957 22.432 59.8132 22.432V24.032C62.6108 24.032 64.8512 21.8639 64.8512 18.76H63.2512ZM71.0586 12.338V11.538H70.2586V12.338H71.0586ZM71.0586 25H70.2586V25.8H71.0586V25ZM73.1646 25V25.8H73.9646V25H73.1646ZM73.1646 12.338H73.9646V11.538H73.1646V12.338ZM72.1246 10.824C73.4155 10.824 74.4586 9.79873 74.4586 8.516H72.8586C72.8586 8.89727 72.5498 9.224 72.1246 9.224V10.824ZM74.4586 8.516C74.4586 7.23327 73.4155 6.208 72.1246 6.208V7.808C72.5498 7.808 72.8586 8.13473 72.8586 8.516H74.4586ZM72.1246 6.208C70.8338 6.208 69.7906 7.23327 69.7906 8.516H71.3906C71.3906 8.13473 71.6995 7.808 72.1246 7.808V6.208ZM69.7906 8.516C69.7906 9.79873 70.8338 10.824 72.1246 10.824V9.224C71.6995 9.224 71.3906 8.89727 71.3906 8.516H69.7906ZM70.2586 12.338V25H71.8586V12.338H70.2586ZM71.0586 25.8H73.1646V24.2H71.0586V25.8ZM73.9646 25V12.338H72.3646V25H73.9646ZM73.1646 11.538H71.0586V13.138H73.1646V11.538ZM78.3157 12.338V11.538H77.5157V12.338H78.3157ZM78.3157 25H77.5157V25.8H78.3157V25ZM80.4217 25V25.8H81.2217V25H80.4217ZM87.4937 25H86.6937V25.8H87.4937V25ZM89.5997 25V25.8H90.3997V25H89.5997ZM80.4477 14.626V15.426H80.884L81.1203 15.0592L80.4477 14.626ZM80.4217 14.626H79.6217V15.426H80.4217V14.626ZM80.4217 12.338H81.2217V11.538H80.4217V12.338ZM77.5157 12.338V25H79.1157V12.338H77.5157ZM78.3157 25.8H80.4217V24.2H78.3157V25.8ZM81.2217 25V18.682H79.6217V25H81.2217ZM81.2217 18.682C81.2217 17.3923 81.5726 16.4534 82.1024 15.8487C82.6222 15.2553 83.3806 14.906 84.3737 14.906V13.306C82.9748 13.306 81.7572 13.8147 80.8989 14.7943C80.0507 15.7626 79.6217 17.1117 79.6217 18.682H81.2217ZM84.3737 14.906C85.1517 14.906 85.6763 15.1155 86.0254 15.5121C86.3929 15.9296 86.6937 16.6973 86.6937 18.084H88.2937C88.2937 16.5067 87.9574 15.2854 87.2264 14.4549C86.477 13.6035 85.4417 13.306 84.3737 13.306V14.906ZM86.6937 18.084V25H88.2937V18.084H86.6937ZM87.4937 25.8H89.5997V24.2H87.4937V25.8ZM90.3997 25V17.486H88.7997V25H90.3997ZM90.3997 17.486C90.3997 15.5533 89.9128 14.0082 88.9399 12.9401C87.9576 11.8615 86.583 11.382 85.0497 11.382V12.982C86.2464 12.982 87.1468 13.3474 87.757 14.0174C88.3766 14.6978 88.7997 15.8047 88.7997 17.486H90.3997ZM85.0497 11.382C82.8373 11.382 80.9155 12.4222 79.7751 14.1928L81.1203 15.0592C81.9559 13.7618 83.3621 12.982 85.0497 12.982V11.382ZM80.4477 13.826H80.4217V15.426H80.4477V13.826ZM81.2217 14.626V12.338H79.6217V14.626H81.2217ZM80.4217 11.538H78.3157V13.138H80.4217V11.538ZM94.3362 12.338V11.538H93.5362V12.338H94.3362ZM94.3362 25H93.5362V25.8H94.3362V25ZM96.4422 25V25.8H97.2422V25H96.4422ZM103.514 25H102.714V25.8H103.514V25ZM105.62 25V25.8H106.42V25H105.62ZM96.4682 14.626V15.426H96.9045L97.1407 15.0592L96.4682 14.626ZM96.4422 14.626H95.6422V15.426H96.4422V14.626ZM96.4422 12.338H97.2422V11.538H96.4422V12.338ZM93.5362 12.338V25H95.1362V12.338H93.5362ZM94.3362 25.8H96.4422V24.2H94.3362V25.8ZM97.2422 25V18.682H95.6422V25H97.2422ZM97.2422 18.682C97.2422 17.3923 97.5931 16.4534 98.1229 15.8487C98.6427 15.2553 99.401 14.906 100.394 14.906V13.306C98.9953 13.306 97.7776 13.8147 96.9194 14.7943C96.0712 15.7626 95.6422 17.1117 95.6422 18.682H97.2422ZM100.394 14.906C101.172 14.906 101.697 15.1155 102.046 15.5121C102.413 15.9296 102.714 16.6973 102.714 18.084H104.314C104.314 16.5067 103.978 15.2854 103.247 14.4549C102.498 13.6035 101.462 13.306 100.394 13.306V14.906ZM102.714 18.084V25H104.314V18.084H102.714ZM103.514 25.8H105.62V24.2H103.514V25.8ZM106.42 25V17.486H104.82V25H106.42ZM106.42 17.486C106.42 15.5533 105.933 14.0082 104.96 12.9401C103.978 11.8615 102.603 11.382 101.07 11.382V12.982C102.267 12.982 103.167 13.3474 103.777 14.0174C104.397 14.6978 104.82 15.8047 104.82 17.486H106.42ZM101.07 11.382C98.8578 11.382 96.936 12.4222 95.7956 14.1928L97.1407 15.0592C97.9763 13.7618 99.3825 12.982 101.07 12.982V11.382ZM96.4682 13.826H96.4422V15.426H96.4682V13.826ZM97.2422 14.626V12.338H95.6422V14.626H97.2422ZM96.4422 11.538H94.3362V13.138H96.4422V11.538Z" fill="white"/>
<rect y="19.3334" width="6.66667" height="6.66667" fill="#FB94BF"/>
<rect y="12.6666" width="6.66667" height="6.66667" fill="#D9598E"/>
<rect y="6" width="6.66667" height="6.66667" fill="#AE3467"/>
<rect x="6.66669" y="6" width="6.66667" height="6.66667" fill="#D9598E"/>
<path d="M10 16H15C17.7614 16 20 18.2386 20 21C20 23.7614 17.7614 26 15 26C12.2386 26 10 23.7614 10 21V16Z" fill="white"/>
<rect x="13.3333" y="6" width="6.66667" height="6.66667" fill="#FB94BF"/>
</svg>
